<svg id="Layer_1" data-name="Layer 1" xmlns="http://www.w3.org/2000/svg" viewBox="0 0 1040 1040"><defs><style>.cls-1{fill:#adbac0;}.cls-2{fill:#eb6d20;}.cls-3{fill:#3f3f3f;}.cls-4{fill:#adbac2;}.cls-5{fill:#ea7200;}</style></defs><title>Logo ELECTRICAL &amp;amp; COMPUTER</title><path d="M157.15,717.87H137.76v18h21.6v5.4h-28V691.38h26.93v5.4H137.76v15.76h19.38Z"/><path d="M167.72,691.38h6.44v44.47h21.31v5.4H167.72Z"/><path d="M228.46,717.87H209.08v18h21.6v5.4h-28V691.38h26.93v5.4H209.08v15.76h19.38Z"/><path d="M273.89,739.62c-2.37,1.18-7.1,2.37-13.17,2.37-14.06,0-24.64-8.88-24.64-25.23,0-15.61,10.58-26.19,26-26.19,6.21,0,10.14,1.33,11.84,2.22L272.41,698A23.44,23.44,0,0,0,262.35,696c-11.69,0-19.46,7.47-19.46,20.57,0,12.21,7,20.05,19.16,20.05a25.76,25.76,0,0,0,10.51-2.07Z"/><path d="M293.49,696.86H278.32v-5.48h36.92v5.48H300v44.39h-6.51Z"/><path d="M320.79,692.05a67,67,0,0,1,12.36-1c6.88,0,11.32,1.26,14.43,4.07a12.42,12.42,0,0,1,3.92,9.47c0,6.58-4.14,10.95-9.4,12.73v.22c3.85,1.33,6.14,4.88,7.32,10.06,1.63,7,2.81,11.76,3.85,13.69h-6.66c-.81-1.41-1.92-5.7-3.33-11.91-1.48-6.88-4.14-9.47-10-9.69h-6.07v21.6h-6.44Zm6.44,22.71h6.59c6.88,0,11.25-3.77,11.25-9.47,0-6.44-4.66-9.25-11.47-9.32a26.44,26.44,0,0,0-6.36.59Z"/><path d="M367,691.38v49.87h-6.44V691.38Z"/><path d="M413.12,739.62c-2.37,1.18-7.1,2.37-13.17,2.37-14.06,0-24.64-8.88-24.64-25.23,0-15.61,10.58-26.19,26-26.19,6.21,0,10.14,1.33,11.84,2.22L411.64,698A23.44,23.44,0,0,0,401.57,696c-11.69,0-19.46,7.47-19.46,20.57,0,12.21,7,20.05,19.16,20.05a25.76,25.76,0,0,0,10.51-2.07Z"/><path d="M429.54,725.57l-5.18,15.69H417.7l16.94-49.87h7.77l17,49.87h-6.88l-5.33-15.69Zm16.35-5L441,706.18c-1.11-3.26-1.85-6.21-2.59-9.1h-.15c-.74,3-1.55,6-2.52,9l-4.88,14.43Z"/><path d="M466.75,691.38h6.44v44.47h21.31v5.4H466.75Z"/><path d="M548.57,741.25c-1.41-1.41-2.74-2.81-4.66-4.88a20.44,20.44,0,0,1-14.58,5.7c-9.69,0-15.31-6.51-15.31-14,0-6.81,4.07-11.47,9.77-14.58v-.22a17.13,17.13,0,0,1-4.14-10.43c0-6.07,4.36-12.28,12.65-12.28,6.21,0,11,4.14,11,10.58,0,5.25-3,9.4-10.95,13.32v.22c4.22,4.88,9,10.36,12.13,13.91,2.29-3.48,3.85-8.29,4.81-14.57h5.92c-1.33,7.84-3.48,14.06-7.18,18.42,2.66,2.81,5.25,5.62,8.21,8.8Zm-7.84-8.58c-3-3.26-8.51-9.32-14.06-15.69-2.66,1.7-6.44,4.88-6.44,10.14a9.84,9.84,0,0,0,10.21,10.06A13.93,13.93,0,0,0,540.73,732.67Zm-15.17-30.41c0,3.55,1.63,6.29,3.77,9,5-2.89,8.29-5.55,8.29-9.77,0-3-1.7-6.44-5.77-6.44S525.56,698.41,525.56,702.26Z"/><path d="M612.64,739.62c-2.37,1.18-7.1,2.37-13.17,2.37-14.06,0-24.64-8.88-24.64-25.23,0-15.61,10.58-26.19,26-26.19,6.21,0,10.14,1.33,11.84,2.22L611.16,698A23.44,23.44,0,0,0,601.1,696c-11.69,0-19.46,7.47-19.46,20.57,0,12.21,7,20.05,19.16,20.05a25.75,25.75,0,0,0,10.51-2.07Z"/><path d="M661.76,715.8c0,17.16-10.43,26.26-23.16,26.26-13.17,0-22.42-10.21-22.42-25.3,0-15.83,9.84-26.19,23.16-26.19C653,690.57,661.76,701,661.76,715.8Zm-38.69.81c0,10.65,5.77,20.2,15.91,20.2s16-9.4,16-20.72c0-9.91-5.18-20.27-15.91-20.27S623.07,705.66,623.07,716.61Z"/><path d="M712.14,719.35c-.37-7-.81-15.31-.74-21.53h-.22c-1.7,5.84-3.77,12.06-6.29,18.94L696.09,741H691.2l-8.06-23.75c-2.37-7-4.36-13.46-5.77-19.38h-.15c-.15,6.21-.52,14.58-1,22l-1.33,21.38h-6.14l3.48-49.87h8.21L689,715.5c2.07,6.14,3.77,11.62,5,16.79h.22c1.26-5,3-10.51,5.25-16.79l8.88-24.12h8.21l3.11,49.87H713.4Z"/><path d="M729.6,692A74.59,74.59,0,0,1,742,691c6.36,0,11,1.48,14,4.14a13.41,13.41,0,0,1,4.37,10.43c0,4.51-1.33,8.06-3.85,10.65-3.4,3.63-9,5.48-15.24,5.48a22.14,22.14,0,0,1-5.18-.44v20H729.6ZM736,716a21.63,21.63,0,0,0,5.33.52c7.77,0,12.5-3.77,12.5-10.65,0-6.59-4.66-9.77-11.76-9.77a27,27,0,0,0-6.07.52Z"/><path d="M775.39,691.38v29.52c0,11.17,5,15.91,11.62,15.91,7.4,0,12.13-4.88,12.13-15.91V691.38h6.51v29.08c0,15.32-8.06,21.6-18.87,21.6-10.21,0-17.9-5.84-17.9-21.31V691.38Z"/><path d="M826.29,696.86H811.12v-5.48H848v5.48H832.8v44.39h-6.51Z"/><path d="M879.41,717.87H860v18h21.6v5.4h-28V691.38h26.93v5.4H860v15.76h19.38Z"/><path d="M890,692.05a67,67,0,0,1,12.36-1c6.88,0,11.32,1.26,14.43,4.07a12.42,12.42,0,0,1,3.92,9.47c0,6.58-4.14,10.95-9.4,12.73v.22c3.85,1.33,6.14,4.88,7.32,10.06,1.63,7,2.81,11.76,3.85,13.69H915.8c-.81-1.41-1.92-5.7-3.33-11.91-1.48-6.88-4.14-9.47-10-9.69h-6.07v21.6H890Zm6.44,22.71H903c6.88,0,11.25-3.77,11.25-9.47,0-6.44-4.66-9.25-11.47-9.32a26.44,26.44,0,0,0-6.36.59Z"/><path class="cls-1" d="M163.09,822H139.24v22.11h26.57v6.64H131.33V789.44h33.13v6.64H139.24v19.38h23.84Z"/><path class="cls-1" d="M175.83,818.65c0-4.55-.09-8.28-.36-11.92h7.1L183,814h.18a16.2,16.2,0,0,1,14.56-8.28c6.1,0,15.56,3.64,15.56,18.75v26.3h-8V825.39c0-7.1-2.64-13-10.19-13a11.38,11.38,0,0,0-10.74,8.19,11.52,11.52,0,0,0-.55,3.73v26.48h-8Z"/><path class="cls-1" d="M264.28,806.73c-.18,3.19-.36,6.73-.36,12.1v25.57c0,10.1-2,16.29-6.28,20.11-4.28,4-10.47,5.28-16,5.28-5.28,0-11.1-1.27-14.65-3.64l2-6.1a24.84,24.84,0,0,0,12.92,3.46c8.19,0,14.2-4.28,14.2-15.38v-4.91h-.18c-2.46,4.1-7.19,7.37-14,7.37-10.92,0-18.75-9.28-18.75-21.48,0-14.93,9.74-23.39,19.84-23.39,7.64,0,11.83,4,13.74,7.64h.18l.36-6.64ZM256,824.11a11.41,11.41,0,0,0-.46-3.64A11.54,11.54,0,0,0,244.35,812c-7.64,0-13.11,6.46-13.11,16.65,0,8.65,4.37,15.84,13,15.84a11.71,11.71,0,0,0,11.1-8.19A13.93,13.93,0,0,0,256,832Z"/><path class="cls-1" d="M285.57,794.35c.09,2.73-1.91,4.91-5.1,4.91a4.76,4.76,0,0,1-4.82-4.91,4.88,4.88,0,0,1,5-5A4.75,4.75,0,0,1,285.57,794.35Zm-8.92,56.42v-44h8v44Z"/><path class="cls-1" d="M297.95,818.65c0-4.55-.09-8.28-.36-11.92h7.1l.46,7.28h.18a16.2,16.2,0,0,1,14.56-8.28c6.1,0,15.56,3.64,15.56,18.75v26.3h-8V825.39c0-7.1-2.64-13-10.19-13a11.38,11.38,0,0,0-10.74,8.19,11.52,11.52,0,0,0-.55,3.73v26.48h-8Z"/><path class="cls-1" d="M352.91,830.21C353.09,841,360,845.5,368,845.5a29,29,0,0,0,12.2-2.27l1.36,5.73a35.67,35.67,0,0,1-14.65,2.73c-13.56,0-21.66-8.92-21.66-22.21s7.83-23.75,20.66-23.75c14.38,0,18.2,12.65,18.2,20.75a30.2,30.2,0,0,1-.27,3.73Zm23.48-5.73c.09-5.1-2.09-13-11.1-13-8.1,0-11.65,7.46-12.29,13Z"/><path class="cls-1" d="M398.5,830.21c.18,10.83,7.1,15.29,15.11,15.29a29,29,0,0,0,12.2-2.27l1.36,5.73a35.67,35.67,0,0,1-14.65,2.73c-13.56,0-21.66-8.92-21.66-22.21s7.83-23.75,20.66-23.75c14.38,0,18.2,12.65,18.2,20.75a30.2,30.2,0,0,1-.27,3.73ZM422,824.47c.09-5.1-2.09-13-11.1-13-8.1,0-11.65,7.46-12.29,13Z"/><path class="cls-1" d="M439.64,820.47c0-5.19-.09-9.65-.36-13.74h7l.27,8.65h.36c2-5.92,6.83-9.65,12.19-9.65a8.65,8.65,0,0,1,2.28.27v7.55a12,12,0,0,0-2.73-.27c-5.64,0-9.65,4.28-10.74,10.28a22.56,22.56,0,0,0-.36,3.73v23.48h-7.92Z"/><path class="cls-1" d="M478.68,794.35c.09,2.73-1.91,4.91-5.1,4.91a4.76,4.76,0,0,1-4.82-4.91,4.88,4.88,0,0,1,5-5A4.75,4.75,0,0,1,478.68,794.35Zm-8.92,56.42v-44h8v44Z"/><path class="cls-1" d="M491.05,818.65c0-4.55-.09-8.28-.36-11.92h7.1l.46,7.28h.18A16.2,16.2,0,0,1,513,805.73c6.1,0,15.56,3.64,15.56,18.75v26.3h-8V825.39c0-7.1-2.64-13-10.19-13a11.38,11.38,0,0,0-10.74,8.19,11.53,11.53,0,0,0-.55,3.73v26.48h-8Z"/><path class="cls-1" d="M579.51,806.73c-.18,3.19-.36,6.73-.36,12.1v25.57c0,10.1-2,16.29-6.28,20.11-4.28,4-10.47,5.28-16,5.28-5.28,0-11.1-1.27-14.65-3.64l2-6.1a24.83,24.83,0,0,0,12.92,3.46c8.19,0,14.2-4.28,14.2-15.38v-4.91h-.18c-2.46,4.1-7.19,7.37-14,7.37-10.92,0-18.75-9.28-18.75-21.48,0-14.93,9.74-23.39,19.84-23.39,7.64,0,11.83,4,13.74,7.64h.18l.36-6.64Zm-8.28,17.38A11.72,11.72,0,0,0,559.57,812c-7.64,0-13.1,6.46-13.1,16.65,0,8.65,4.37,15.84,13,15.84a11.71,11.71,0,0,0,11.1-8.19,13.91,13.91,0,0,0,.64-4.28Z"/><path class="cls-2" d="M595,789.44h7.92V819h.27c1.64-2.37,3.28-4.55,4.82-6.55l18.75-23h9.83l-22.21,26,23.94,35.31h-9.37l-20.2-30.12-5.82,6.73v23.39H595Z"/><path class="cls-2" d="M696,823.84c-.46-8.55-1-18.84-.91-26.48h-.27c-2.09,7.19-4.64,14.83-7.74,23.3l-10.83,29.76h-6l-9.92-29.21c-2.91-8.65-5.37-16.56-7.1-23.84H653c-.18,7.64-.64,17.93-1.18,27.12l-1.64,26.3h-7.55l4.28-61.34H657l10.47,29.67c2.55,7.55,4.64,14.29,6.19,20.66H674c1.55-6.19,3.73-12.92,6.46-20.66l10.92-29.67h10.1l3.82,61.34h-7.73Z"/><path class="cls-2" d="M725.38,789.44v36.31c0,13.74,6.1,19.57,14.29,19.57,9.1,0,14.93-6,14.93-19.57V789.44h8V825.2c0,18.84-9.92,26.57-23.21,26.57-12.56,0-22-7.19-22-26.21V789.44Z"/><path class="cls-2" d="M788,796.17H769.34v-6.73h45.41v6.73H796v54.6h-8Z"/><path class="cls-2" d="M821.57,850.77V789.44h8.65l19.66,31a173.7,173.7,0,0,1,11,19.93l.18-.09c-.73-8.19-.91-15.65-.91-25.21V789.44h7.46v61.34h-8l-19.48-31.12a194.71,194.71,0,0,1-11.47-20.48l-.27.09c.46,7.74.64,15.11.64,25.3v26.21Z"/><path class="cls-2" d="M881.45,790.26A76.72,76.72,0,0,1,895.92,789c7.92,0,13,1.37,16.84,4.46a12.86,12.86,0,0,1,5.1,10.83c0,5.92-3.91,11.1-10.38,13.47v.18c5.82,1.46,12.65,6.28,12.65,15.38a16.53,16.53,0,0,1-5.19,12.29c-4.28,3.91-11.19,5.73-21.2,5.73a92.49,92.49,0,0,1-12.29-.73Zm7.92,25.12h7.19c8.37,0,13.29-4.37,13.29-10.28,0-7.19-5.46-10-13.47-10a34,34,0,0,0-7,.55Zm0,29.39a42.27,42.27,0,0,0,6.64.36c8.19,0,15.74-3,15.74-11.92,0-8.37-7.19-11.83-15.84-11.83h-6.55Z"/><circle class="cls-3" cx="137.62" cy="410.7" r="14.15"/><circle class="cls-3" cx="216.03" cy="410.7" r="14.15"/><circle class="cls-3" cx="292.19" cy="410.7" r="14.15"/><circle class="cls-3" cx="369.34" cy="410.7" r="14.15"/><circle class="cls-3" cx="525.83" cy="410.7" r="14.15"/><circle class="cls-3" cx="602.26" cy="410.7" r="14.15"/><circle class="cls-3" cx="679.99" cy="410.7" r="14.15"/><circle class="cls-3" cx="757.21" cy="410.7" r="14.15"/><circle class="cls-3" cx="835.46" cy="410.7" r="14.15"/><circle class="cls-3" cx="913.71" cy="410.7" r="14.15"/><path class="cls-4" d="M857.39,640.07h-4.52c-2,.12-9.63.1-24.26-.86v-.12l-.7,0a214.57,214.57,0,0,1-73.34-21.62C688,583.91,646.26,519.08,630.44,424.84c-10.75-64.05-39.08-117.35-84.19-158.4-36-32.74-82.63-57.75-138.63-74.32C319.25,166,234.77,169.33,222.66,170c-8.3-.17-16.21-.19-23.61-.15l-10.4.07c-11-.16-20.93,0-29.32.05-4.38.05-8.51.1-12.09.1H123.48v9.13h3.91c76.27,1.29,143.38,4.94,192.31,36.55,50.12,32.37,80.73,92.76,99.28,195.79,11.74,65.21,41.19,118.32,87.55,157.85,37,31.54,84.69,54.48,141.79,68.19,48.48,11.64,95.7,12.56,130.9,12.56s58.26.06,58.71,0h0c3.65.19,6.77,0,9.25,0,2.93,0,5,.06,6,0h69.28V640.07ZM405,200.88c124.68,36.9,197.49,112.76,216.41,225.48,8.95,53.3,26.46,98.17,52,133.37a213.66,213.66,0,0,0,77,65.94,217.66,217.66,0,0,0,21.45,9.41,272.43,272.43,0,0,1-57.24-16.68C634.79,585,583.6,518.13,562.51,419.57c-21.92-102.42-75.74-174.27-160-213.53A331.8,331.8,0,0,0,360.71,190C375.13,192.86,390,196.43,405,200.88ZM737.1,636.16a352.38,352.38,0,0,1-89.77-27.67c-86.4-40.42-139.72-110.55-158.49-208.43-25.77-134.47-105.32-190.67-183-214,94.65,16.19,212,68.44,247.78,235.42C565.53,477.3,587.45,524,618.72,560.21a246.18,246.18,0,0,0,92.41,66.61A275.49,275.49,0,0,0,737.1,636.16ZM428,409.9c-19-105.73-50.89-168-103.31-201.84a177.56,177.56,0,0,0-30.38-15.59c78,21.14,159.81,74.73,185.61,209.3,10.64,55.53,32.66,103.11,65.45,141.43,26.24,30.67,59.36,55.46,98.45,73.7a353.78,353.78,0,0,0,59.37,21.37,497.35,497.35,0,0,1-52.69-9.58C523.45,598.19,448.6,524.58,428,409.9Z"/><path class="cls-5" d="M922.46,167.17H824.79c-7-.33-82.79-.33-169.62,18.07a369.8,369.8,0,0,0-134.47,58c-46.59,32.28-79.36,74.09-97.4,124.28-72,200.31-96.92,253-243.73,258.53h-56.1v29.7H180.4c9-.33,17.56.72,25.8,0,3.5,0,7.05,0,10.71,0,21.95,0,46.58-.09,72.57-2h0a22.78,22.78,0,0,0,6.33,0c52.82-4.3,110.78-16.89,163.27-39.4,43.23-18.53,79.78-44.21,108.62-76.31,32.48-36.15,56.25-81.58,70.63-135,25.3-94,66.93-159.41,120.41-189.18,22.43-12.49,42.68-16.29,56.19-17.21,5.45.07,8.52,0,8.67,0h7.82a2.49,2.49,0,0,0,.64,0h90.36ZM348.28,622A276.11,276.11,0,0,0,372,606.5a295.33,295.33,0,0,0,68.6-70.89c24-34.71,42.15-75.78,53.92-122.07,20.83-81.91,66.94-142.61,137-180.39a298.58,298.58,0,0,1,47.63-20.48c-23.57,15.72-45,36.77-63.85,62.81-28.22,39-50.75,89.27-67,149.51-21.13,78.49-71.18,137.8-148.73,176.29A370.66,370.66,0,0,1,348.28,622Zm4.94-34.33c37.09-43.56,61.42-108.22,98-210.13,22.82-63.5,71.51-111,145.09-141.91a281.25,281.25,0,0,0-55.87,50.53c-28.83,34.21-49.58,75.71-61.7,123.35C453.37,509.46,401.85,564.4,363.1,592.89A252.08,252.08,0,0,1,319,618.95,176.79,176.79,0,0,0,353.22,587.69ZM682.52,263.2c-24.91,35-45,80.66-59.82,135.6C588.09,527.38,503.77,588.27,406.26,616.09l.06,0c35.89-17.74,66.78-40.33,91.81-67.13C529.51,515.33,551.67,475,564,429.2c27.87-103.52,75.29-176.48,137.13-211a172.07,172.07,0,0,1,49.92-18.63C725.53,213.75,702.47,235.14,682.52,263.2Zm149.55-66.57h0Z"/><circle class="cls-3" cx="448.35" cy="410.7" r="14.15"/></svg>